<?xml version='1.0' encoding='UTF-8' standalone='no'?>
<!-- Created with Fritzing (http://www.fritzing.org/) -->
<svg xmlns="http://www.w3.org/2000/svg" width="5.03937in" version="1.2" baseProfile="tiny" height="3.8189in"  x="0in" xmlns:svg="http://www.w3.org/2000/svg" y="0in" viewBox="0 0 362.835 274.961">
 <g partID="854252920">
  <g id="board" >
   <rect id="boardoutline" fill="none" stroke="black" width="362.259" height="274.385" stroke-width="0.5"  fill-opacity="0.5" x="0.288" y="0.288"/>
  </g>
 </g>
 <g partID="854242720">
  <g transform="translate(71.5691,150.48)">
   <g transform="matrix(-1,0,0,-1,0,0)">
    <g id="copper0" >
     <g id="copper1" >
      <circle id="connector1pad" fill="none" cx="8.7876" cy="10.6336" stroke="black" r="1.7008" stroke-width="1.13384" />
      <rect fill="none" stroke="black" width="3.4016" height="3.4016" stroke-width="1.13384"  x="7.0868" y="8.9328"/>
      <circle id="connector0pad" fill="none" cx="8.7876" cy="3.5464" stroke="black" r="1.7008" stroke-width="1.13384" />
     </g>
    </g>
   </g>
  </g>
 </g>
 <g partID="854242750">
  <g transform="translate(42.7691,150.48)">
   <g transform="matrix(-1,0,0,-1,0,0)">
    <g id="copper0" >
     <g id="copper1" >
      <circle id="connector1pad" fill="none" cx="8.7876" cy="10.6336" stroke="black" r="1.7008" stroke-width="1.13384" />
      <rect fill="none" stroke="black" width="3.4016" height="3.4016" stroke-width="1.13384"  x="7.0868" y="8.9328"/>
      <circle id="connector0pad" fill="none" cx="8.7876" cy="3.5464" stroke="black" r="1.7008" stroke-width="1.13384" />
     </g>
    </g>
   </g>
  </g>
 </g>
 <g partID="854246090">
  <g transform="translate(174.093,13.7333)">
   <g id="copper0" >
    <circle id="connector0pad" fill="none" cx="3.888" cy="3.6" stroke="black" r="1.962" stroke-width="1.404"  connectorname="1"/>
    <circle id="connector1pad" fill="none" cx="11.088" cy="4.176" stroke="black" r="1.962" stroke-width="1.404"  connectorname="2"/>
    <circle id="connector2pad" fill="none" cx="18.288" cy="3.6" stroke="black" r="1.962" stroke-width="1.404"  connectorname="3"/>
    <circle id="connector3pad" fill="none" cx="25.488" cy="4.176" stroke="black" r="1.962" stroke-width="1.404"  connectorname="4"/>
    <circle id="connector4pad" fill="none" cx="32.688" cy="3.6" stroke="black" r="1.962" stroke-width="1.404"  connectorname="5"/>
    <circle id="connector5pad" fill="none" cx="39.888" cy="4.176" stroke="black" r="1.962" stroke-width="1.404"  connectorname="6"/>
    <circle id="connector6pad" fill="none" cx="47.088" cy="3.6" stroke="black" r="1.962" stroke-width="1.404"  connectorname="7"/>
    <circle id="connector7pad" fill="none" cx="54.288" cy="4.176" stroke="black" r="1.962" stroke-width="1.404"  connectorname="8"/>
    <circle id="connector8pad" fill="none" cx="61.488" cy="3.6" stroke="black" r="1.962" stroke-width="1.404"  connectorname="9"/>
    <circle id="connector9pad" fill="none" cx="68.688" cy="4.176" stroke="black" r="1.962" stroke-width="1.404"  connectorname="10"/>
    <circle id="connector10pad" fill="none" cx="75.888" cy="3.6" stroke="black" r="1.962" stroke-width="1.404"  connectorname="11"/>
    <circle id="connector11pad" fill="none" cx="83.088" cy="4.176" stroke="black" r="1.962" stroke-width="1.404"  connectorname="12"/>
   </g>
  </g>
 </g>
 <g partID="854246240">
  <g transform="translate(43.3415,33.8933)">
   <g id="copper0" >
    <circle id="connector0pin" fill="none" cx="5.04" cy="5.04" stroke="black" r="2.088" stroke-width="1.44" />
    <circle id="connector1pin" fill="none" cx="5.04" cy="12.24" stroke="black" r="2.088" stroke-width="1.44" />
   </g>
  </g>
 </g>
 <g partID="854248690">
  <g transform="translate(60.0815,158.237)">
   <g id="copper0" >
    <g id="copper1" >
     <!-- <rect width="55" x="10" y="15.5" fill="none" height="55" stroke="rgb(255, 191, 0)" stroke-width="20" />  -->
     <circle id="connector0pin" fill="none" cx="2.7" cy="3.096" stroke="black" r="1.98" stroke-width="1.44" />
     <circle id="connector1pin" fill="none" cx="31.5" cy="3.096" stroke="black" r="1.98" stroke-width="1.44" />
    </g>
   </g>
  </g>
 </g>
 <g partID="854248100">
  <g transform="translate(31.2815,172.637)">
   <g id="copper0" >
    <g id="copper1" >
     <!-- <rect width="55" x="10" y="15.5" fill="none" height="55" stroke="rgb(255, 191, 0)" stroke-width="20" />  -->
     <circle id="connector0pin" fill="none" cx="2.7" cy="3.096" stroke="black" r="1.98" stroke-width="1.44" />
     <circle id="connector1pin" fill="none" cx="31.5" cy="3.096" stroke="black" r="1.98" stroke-width="1.44" />
    </g>
   </g>
  </g>
 </g>
 <g partID="854267550">
  <g transform="translate(261.681,151.037)">
   <g id="copper0" >
    <g id="copper1" >
     <!-- <rect width="55" x="10" y="15.5" fill="none" height="55" stroke="rgb(255, 191, 0)" stroke-width="20" />  -->
     <circle id="connector0pin" fill="none" cx="2.7" cy="3.096" stroke="black" r="1.98" stroke-width="1.44" />
     <circle id="connector1pin" fill="none" cx="31.5" cy="3.096" stroke="black" r="1.98" stroke-width="1.44" />
    </g>
   </g>
  </g>
 </g>
 <g partID="854267300">
  <g transform="translate(232.881,172.637)">
   <g id="copper0" >
    <g id="copper1" >
     <!-- <rect width="55" x="10" y="15.5" fill="none" height="55" stroke="rgb(255, 191, 0)" stroke-width="20" />  -->
     <circle id="connector0pin" fill="none" cx="2.7" cy="3.096" stroke="black" r="1.98" stroke-width="1.44" />
     <circle id="connector1pin" fill="none" cx="31.5" cy="3.096" stroke="black" r="1.98" stroke-width="1.44" />
    </g>
   </g>
  </g>
 </g>
 <g partID="854261700">
  <g transform="translate(207.062,135.635)">
   <g transform="matrix(0.707107,0.707107,-0.707107,0.707107,0,0)">
    <g id="copper0" >
     <g id="copper1" >
      <!-- <rect width="55" x="10" y="15.5" fill="none" height="55" stroke="rgb(255, 191, 0)" stroke-width="20" />  -->
      <circle id="connector0pin" fill="none" cx="2.7" cy="3.096" stroke="black" r="1.98" stroke-width="1.44" />
      <circle id="connector1pin" fill="none" cx="31.5" cy="3.096" stroke="black" r="1.98" stroke-width="1.44" />
     </g>
    </g>
   </g>
  </g>
 </g>
 <g partID="854269220">
  <g transform="translate(37.0775,209.033)">
   <g transform="matrix(0,1,-1,0,0,0)">
    <g id="copper0" >
     <g id="copper1" >
      <!-- <rect width="55" x="10" y="15.5" fill="none" height="55" stroke="rgb(255, 191, 0)" stroke-width="20" />  -->
      <circle id="connector0pin" fill="none" cx="2.7" cy="3.096" stroke="black" r="1.98" stroke-width="1.44" />
      <circle id="connector1pin" fill="none" cx="31.5" cy="3.096" stroke="black" r="1.98" stroke-width="1.44" />
     </g>
    </g>
   </g>
  </g>
 </g>
 <g partID="854273370">
  <g transform="translate(173.877,223.433)">
   <g transform="matrix(0,1,-1,0,0,0)">
    <g id="copper0" >
     <g id="copper1" >
      <!-- <rect width="55" x="10" y="15.5" fill="none" height="55" stroke="rgb(255, 191, 0)" stroke-width="20" />  -->
      <circle id="connector0pin" fill="none" cx="2.7" cy="3.096" stroke="black" r="1.98" stroke-width="1.44" />
      <circle id="connector1pin" fill="none" cx="31.5" cy="3.096" stroke="black" r="1.98" stroke-width="1.44" />
     </g>
    </g>
   </g>
  </g>
 </g>
 <g partID="854269240">
  <g transform="translate(52.8815,215.837)">
   <g id="copper0" >
    <g id="copper1" >
     <!-- <rect width="55" x="10" y="15.5" fill="none" height="55" stroke="rgb(255, 191, 0)" stroke-width="20" />  -->
     <circle id="connector0pin" fill="none" cx="2.7" cy="3.096" stroke="black" r="1.98" stroke-width="1.44" />
     <circle id="connector1pin" fill="none" cx="31.5" cy="3.096" stroke="black" r="1.98" stroke-width="1.44" />
    </g>
   </g>
  </g>
 </g>
 <g partID="854273390">
  <g transform="translate(192.662,222.035)">
   <g transform="matrix(0.707107,0.707107,-0.707107,0.707107,0,0)">
    <g id="copper0" >
     <g id="copper1" >
      <!-- <rect width="55" x="10" y="15.5" fill="none" height="55" stroke="rgb(255, 191, 0)" stroke-width="20" />  -->
      <circle id="connector0pin" fill="none" cx="2.7" cy="3.096" stroke="black" r="1.98" stroke-width="1.44" />
      <circle id="connector1pin" fill="none" cx="31.5" cy="3.096" stroke="black" r="1.98" stroke-width="1.44" />
     </g>
    </g>
   </g>
  </g>
 </g>
 <g partID="854270920">
  <g transform="translate(109.077,216.233)">
   <g transform="matrix(0,1,-1,0,0,0)">
    <g id="copper0" >
     <g id="copper1" >
      <!-- <rect width="55" x="10" y="15.5" fill="none" height="55" stroke="rgb(255, 191, 0)" stroke-width="20" />  -->
      <circle id="connector0pin" fill="none" cx="2.7" cy="3.096" stroke="black" r="1.98" stroke-width="1.44" />
      <circle id="connector1pin" fill="none" cx="31.5" cy="3.096" stroke="black" r="1.98" stroke-width="1.44" />
     </g>
    </g>
   </g>
  </g>
 </g>
 <g partID="854261680">
  <g transform="translate(188.277,137.033)">
   <g transform="matrix(0,1,-1,0,0,0)">
    <g id="copper0" >
     <g id="copper1" >
      <!-- <rect width="55" x="10" y="15.5" fill="none" height="55" stroke="rgb(255, 191, 0)" stroke-width="20" />  -->
      <circle id="connector0pin" fill="none" cx="2.7" cy="3.096" stroke="black" r="1.98" stroke-width="1.44" />
      <circle id="connector1pin" fill="none" cx="31.5" cy="3.096" stroke="black" r="1.98" stroke-width="1.44" />
     </g>
    </g>
   </g>
  </g>
 </g>
 <g partID="854271440">
  <g transform="translate(127.862,214.835)">
   <g transform="matrix(0.707107,0.707107,-0.707107,0.707107,0,0)">
    <g id="copper0" >
     <g id="copper1" >
      <!-- <rect width="55" x="10" y="15.5" fill="none" height="55" stroke="rgb(255, 191, 0)" stroke-width="20" />  -->
      <circle id="connector0pin" fill="none" cx="2.7" cy="3.096" stroke="black" r="1.98" stroke-width="1.44" />
      <circle id="connector1pin" fill="none" cx="31.5" cy="3.096" stroke="black" r="1.98" stroke-width="1.44" />
     </g>
    </g>
   </g>
  </g>
 </g>
 <g partID="854251010">
  <g transform="translate(185.462,70.8349)">
   <g transform="matrix(0.707107,0.707107,-0.707107,0.707107,0,0)">
    <g id="copper0" >
     <g id="copper1" >
      <!-- <rect width="55" x="10" y="15.5" fill="none" height="55" stroke="rgb(255, 191, 0)" stroke-width="20" />  -->
      <circle id="connector0pin" fill="none" cx="2.7" cy="3.096" stroke="black" r="1.98" stroke-width="1.44" />
      <circle id="connector1pin" fill="none" cx="31.5" cy="3.096" stroke="black" r="1.98" stroke-width="1.44" />
     </g>
    </g>
   </g>
  </g>
 </g>
 <g partID="854250990">
  <g transform="translate(160.879,67.8526)">
   <g transform="matrix(0.707107,0.707107,-0.707107,0.707107,0,0)">
    <g id="copper0" >
     <g id="copper1" >
      <!-- <rect width="55" x="10" y="15.5" fill="none" height="55" stroke="rgb(255, 191, 0)" stroke-width="20" />  -->
      <circle id="connector0pin" fill="none" cx="2.7" cy="3.096" stroke="black" r="1.98" stroke-width="1.44" />
      <circle id="connector1pin" fill="none" cx="31.5" cy="3.096" stroke="black" r="1.98" stroke-width="1.44" />
     </g>
    </g>
   </g>
  </g>
 </g>
 <g partID="854249350">
  <g transform="translate(109.077,65.0333)">
   <g transform="matrix(0,1,-1,0,0,0)">
    <g id="copper0" >
     <g id="copper1" >
      <!-- <rect width="55" x="10" y="15.5" fill="none" height="55" stroke="rgb(255, 191, 0)" stroke-width="20" />  -->
      <circle id="connector0pin" fill="none" cx="2.7" cy="3.096" stroke="black" r="1.98" stroke-width="1.44" />
      <circle id="connector1pin" fill="none" cx="31.5" cy="3.096" stroke="black" r="1.98" stroke-width="1.44" />
     </g>
    </g>
   </g>
  </g>
 </g>
 <g partID="854249730">
  <g transform="translate(120.662,70.8349)">
   <g transform="matrix(0.707107,0.707107,-0.707107,0.707107,0,0)">
    <g id="copper0" >
     <g id="copper1" >
      <!-- <rect width="55" x="10" y="15.5" fill="none" height="55" stroke="rgb(255, 191, 0)" stroke-width="20" />  -->
      <circle id="connector0pin" fill="none" cx="2.7" cy="3.096" stroke="black" r="1.98" stroke-width="1.44" />
      <circle id="connector1pin" fill="none" cx="31.5" cy="3.096" stroke="black" r="1.98" stroke-width="1.44" />
     </g>
    </g>
   </g>
  </g>
 </g>
 <g partID="854259130">
  <g transform="translate(142.262,135.635)">
   <g transform="matrix(0.707107,0.707107,-0.707107,0.707107,0,0)">
    <g id="copper0" >
     <g id="copper1" >
      <!-- <rect width="55" x="10" y="15.5" fill="none" height="55" stroke="rgb(255, 191, 0)" stroke-width="20" />  -->
      <circle id="connector0pin" fill="none" cx="2.7" cy="3.096" stroke="black" r="1.98" stroke-width="1.44" />
      <circle id="connector1pin" fill="none" cx="31.5" cy="3.096" stroke="black" r="1.98" stroke-width="1.44" />
     </g>
    </g>
   </g>
  </g>
 </g>
 <g partID="854258540">
  <g transform="translate(123.477,137.033)">
   <g transform="matrix(0,1,-1,0,0,0)">
    <g id="copper0" >
     <g id="copper1" >
      <!-- <rect width="55" x="10" y="15.5" fill="none" height="55" stroke="rgb(255, 191, 0)" stroke-width="20" />  -->
      <circle id="connector0pin" fill="none" cx="2.7" cy="3.096" stroke="black" r="1.98" stroke-width="1.44" />
      <circle id="connector1pin" fill="none" cx="31.5" cy="3.096" stroke="black" r="1.98" stroke-width="1.44" />
     </g>
    </g>
   </g>
  </g>
 </g>
 <g partID="854257430">
  <g transform="translate(307.862,63.6349)">
   <g transform="matrix(0.707107,0.707107,-0.707107,0.707107,0,0)">
    <g id="copper0" >
     <g id="copper1" >
      <!-- <rect width="55" x="10" y="15.5" fill="none" height="55" stroke="rgb(255, 191, 0)" stroke-width="20" />  -->
      <circle id="connector0pin" fill="none" cx="2.7" cy="3.096" stroke="black" r="1.98" stroke-width="1.44" />
      <circle id="connector1pin" fill="none" cx="31.5" cy="3.096" stroke="black" r="1.98" stroke-width="1.44" />
     </g>
    </g>
   </g>
  </g>
 </g>
 <g partID="854253130">
  <g transform="translate(231.477,65.0333)">
   <g transform="matrix(0,1,-1,0,0,0)">
    <g id="copper0" >
     <g id="copper1" >
      <!-- <rect width="55" x="10" y="15.5" fill="none" height="55" stroke="rgb(255, 191, 0)" stroke-width="20" />  -->
      <circle id="connector0pin" fill="none" cx="2.7" cy="3.096" stroke="black" r="1.98" stroke-width="1.44" />
      <circle id="connector1pin" fill="none" cx="31.5" cy="3.096" stroke="black" r="1.98" stroke-width="1.44" />
     </g>
    </g>
   </g>
  </g>
 </g>
 <g partID="854256350">
  <g transform="translate(264.662,49.2349)">
   <g transform="matrix(0.707107,0.707107,-0.707107,0.707107,0,0)">
    <g id="copper0" >
     <g id="copper1" >
      <!-- <rect width="55" x="10" y="15.5" fill="none" height="55" stroke="rgb(255, 191, 0)" stroke-width="20" />  -->
      <circle id="connector0pin" fill="none" cx="2.7" cy="3.096" stroke="black" r="1.98" stroke-width="1.44" />
      <circle id="connector1pin" fill="none" cx="31.5" cy="3.096" stroke="black" r="1.98" stroke-width="1.44" />
     </g>
    </g>
   </g>
  </g>
 </g>
 <g partID="854253340">
  <g transform="translate(232.881,79.0373)">
   <g id="copper0" >
    <g id="copper1" >
     <!-- <rect width="55" x="10" y="15.5" fill="none" height="55" stroke="rgb(255, 191, 0)" stroke-width="20" />  -->
     <circle id="connector0pin" fill="none" cx="2.7" cy="3.096" stroke="black" r="1.98" stroke-width="1.44" />
     <circle id="connector1pin" fill="none" cx="31.5" cy="3.096" stroke="black" r="1.98" stroke-width="1.44" />
    </g>
   </g>
  </g>
 </g>
 <g partID="854267570">
  <g transform="translate(277.261,183.37)">
   <g transform="matrix(0.707107,-0.707107,0.707107,0.707107,0,0)">
    <g id="copper0" >
     <rect id="rect20" fill="none" width="5.184" stroke="black" height="5.184" stroke-width="1.44"  x="0.72" y="0.72"/>
     <circle id="connector0pin" fill="none" cx="3.312" cy="3.312" stroke="black" r="2.592" stroke-width="1.44" />
     <circle id="connector1pin" fill="none" cx="24.912" cy="3.312" stroke="black" r="2.592" stroke-width="1.44" />
    </g>
   </g>
  </g>
 </g>
 <g partID="854269720">
  <g transform="translate(45.0695,244.421)">
   <g id="copper0" >
    <rect id="rect20" fill="none" width="5.184" stroke="black" height="5.184" stroke-width="1.44"  x="0.72" y="0.72"/>
    <circle id="connector0pin" fill="none" cx="3.312" cy="3.312" stroke="black" r="2.592" stroke-width="1.44" />
    <circle id="connector1pin" fill="none" cx="24.912" cy="3.312" stroke="black" r="2.592" stroke-width="1.44" />
   </g>
  </g>
 </g>
 <g partID="854271290">
  <g transform="translate(117.069,251.621)">
   <g id="copper0" >
    <rect id="rect20" fill="none" width="5.184" stroke="black" height="5.184" stroke-width="1.44"  x="0.72" y="0.72"/>
    <circle id="connector0pin" fill="none" cx="3.312" cy="3.312" stroke="black" r="2.592" stroke-width="1.44" />
    <circle id="connector1pin" fill="none" cx="24.912" cy="3.312" stroke="black" r="2.592" stroke-width="1.44" />
   </g>
  </g>
 </g>
 <g partID="854261720">
  <g transform="translate(196.269,179.621)">
   <g id="copper0" >
    <rect id="rect20" fill="none" width="5.184" stroke="black" height="5.184" stroke-width="1.44"  x="0.72" y="0.72"/>
    <circle id="connector0pin" fill="none" cx="3.312" cy="3.312" stroke="black" r="2.592" stroke-width="1.44" />
    <circle id="connector1pin" fill="none" cx="24.912" cy="3.312" stroke="black" r="2.592" stroke-width="1.44" />
   </g>
  </g>
 </g>
 <g partID="854274010">
  <g transform="translate(181.869,258.821)">
   <g id="copper0" >
    <rect id="rect20" fill="none" width="5.184" stroke="black" height="5.184" stroke-width="1.44"  x="0.72" y="0.72"/>
    <circle id="connector0pin" fill="none" cx="3.312" cy="3.312" stroke="black" r="2.592" stroke-width="1.44" />
    <circle id="connector1pin" fill="none" cx="24.912" cy="3.312" stroke="black" r="2.592" stroke-width="1.44" />
   </g>
  </g>
 </g>
 <g partID="854249700">
  <g transform="translate(117.069,107.621)">
   <g id="copper0" >
    <rect id="rect20" fill="none" width="5.184" stroke="black" height="5.184" stroke-width="1.44"  x="0.72" y="0.72"/>
    <circle id="connector0pin" fill="none" cx="3.312" cy="3.312" stroke="black" r="2.592" stroke-width="1.44" />
    <circle id="connector1pin" fill="none" cx="24.912" cy="3.312" stroke="black" r="2.592" stroke-width="1.44" />
   </g>
  </g>
 </g>
 <g partID="854251030">
  <g transform="translate(181.869,107.621)">
   <g id="copper0" >
    <rect id="rect20" fill="none" width="5.184" stroke="black" height="5.184" stroke-width="1.44"  x="0.72" y="0.72"/>
    <circle id="connector0pin" fill="none" cx="3.312" cy="3.312" stroke="black" r="2.592" stroke-width="1.44" />
    <circle id="connector1pin" fill="none" cx="24.912" cy="3.312" stroke="black" r="2.592" stroke-width="1.44" />
   </g>
  </g>
 </g>
 <g partID="854258980">
  <g transform="translate(131.469,172.421)">
   <g id="copper0" >
    <rect id="rect20" fill="none" width="5.184" stroke="black" height="5.184" stroke-width="1.44"  x="0.72" y="0.72"/>
    <circle id="connector0pin" fill="none" cx="3.312" cy="3.312" stroke="black" r="2.592" stroke-width="1.44" />
    <circle id="connector1pin" fill="none" cx="24.912" cy="3.312" stroke="black" r="2.592" stroke-width="1.44" />
   </g>
  </g>
 </g>
 <g partID="854253470">
  <g transform="translate(239.469,107.621)">
   <g id="copper0" >
    <rect id="rect20" fill="none" width="5.184" stroke="black" height="5.184" stroke-width="1.44"  x="0.72" y="0.72"/>
    <circle id="connector0pin" fill="none" cx="3.312" cy="3.312" stroke="black" r="2.592" stroke-width="1.44" />
    <circle id="connector1pin" fill="none" cx="24.912" cy="3.312" stroke="black" r="2.592" stroke-width="1.44" />
   </g>
  </g>
 </g>
 <g partID="854257340">
  <g transform="translate(300.381,84.6495)">
   <g transform="matrix(0.707107,0.707107,-0.707107,0.707107,0,0)">
    <g id="copper0" >
     <rect id="rect20" fill="none" width="5.184" stroke="black" height="5.184" stroke-width="1.44"  x="0.72" y="0.72"/>
     <circle id="connector0pin" fill="none" cx="3.312" cy="3.312" stroke="black" r="2.592" stroke-width="1.44" />
     <circle id="connector1pin" fill="none" cx="24.912" cy="3.312" stroke="black" r="2.592" stroke-width="1.44" />
    </g>
   </g>
  </g>
 </g>
 <g partID="854250330">
  <g transform="translate(189.364,35.916)">
   <g id="copper0" >
    <circle id="connector0pin" fill="none" cx="3.01733" cy="3.01733" stroke="black" r="0.992124" stroke-width="0.850392" />
   </g>
  </g>
 </g>
 <g partID="854250390">
  <g transform="translate(102.964,107.916)">
   <g id="copper0" >
    <circle id="connector0pin" fill="none" cx="3.01733" cy="3.01733" stroke="black" r="0.992124" stroke-width="0.850392" />
   </g>
  </g>
 </g>
 <g partID="854252300">
  <g transform="translate(196.564,35.916)">
   <g id="copper0" >
    <circle id="connector0pin" fill="none" cx="3.01733" cy="3.01733" stroke="black" r="0.992124" stroke-width="0.850392" />
   </g>
  </g>
 </g>
 <g partID="854252360">
  <g transform="translate(160.564,107.916)">
   <g id="copper0" >
    <circle id="connector0pin" fill="none" cx="3.01733" cy="3.01733" stroke="black" r="0.992124" stroke-width="0.850392" />
   </g>
  </g>
 </g>
 <g partID="854255090">
  <g transform="translate(203.764,35.916)">
   <g id="copper0" >
    <circle id="connector0pin" fill="none" cx="3.01733" cy="3.01733" stroke="black" r="0.992124" stroke-width="0.850392" />
   </g>
  </g>
 </g>
 <g partID="854255150">
  <g transform="translate(225.364,107.916)">
   <g id="copper0" >
    <circle id="connector0pin" fill="none" cx="3.01733" cy="3.01733" stroke="black" r="0.992124" stroke-width="0.850392" />
   </g>
  </g>
 </g>
 <g partID="854258000">
  <g transform="translate(210.964,35.916)">
   <g id="copper0" >
    <circle id="connector0pin" fill="none" cx="3.01733" cy="3.01733" stroke="black" r="0.992124" stroke-width="0.850392" />
   </g>
  </g>
 </g>
 <g partID="854258060">
  <g transform="translate(282.964,93.516)">
   <g id="copper0" >
    <circle id="connector0pin" fill="none" cx="3.01733" cy="3.01733" stroke="black" r="0.992124" stroke-width="0.850392" />
   </g>
  </g>
 </g>
 <g partID="854259220">
  <g transform="translate(131.764,129.516)">
   <g id="copper0" >
    <circle id="connector0pin" fill="none" cx="3.01733" cy="3.01733" stroke="black" r="0.992124" stroke-width="0.850392" />
   </g>
  </g>
 </g>
 <g partID="854259480">
  <g transform="translate(74.1642,50.316)">
   <g id="copper0" >
    <circle id="connector0pin" fill="none" cx="3.01733" cy="3.01733" stroke="black" r="0.992124" stroke-width="0.850392" />
   </g>
  </g>
 </g>
 <g partID="854259770">
  <g transform="translate(218.164,35.916)">
   <g id="copper0" >
    <circle id="connector0pin" fill="none" cx="3.01733" cy="3.01733" stroke="black" r="0.992124" stroke-width="0.850392" />
   </g>
  </g>
 </g>
 <g partID="854259850">
  <g transform="translate(117.364,179.916)">
   <g id="copper0" >
    <circle id="connector0pin" fill="none" cx="3.01733" cy="3.01733" stroke="black" r="0.992124" stroke-width="0.850392" />
   </g>
  </g>
 </g>
 <g partID="854263590">
  <g transform="translate(196.564,151.116)">
   <g id="copper0" >
    <circle id="connector0pin" fill="none" cx="3.01733" cy="3.01733" stroke="black" r="0.992124" stroke-width="0.850392" />
   </g>
  </g>
 </g>
 <g partID="854263650">
  <g transform="translate(167.764,151.116)">
   <g id="copper0" >
    <circle id="connector0pin" fill="none" cx="3.01733" cy="3.01733" stroke="black" r="0.992124" stroke-width="0.850392" />
   </g>
  </g>
 </g>
 <g partID="854263680">
  <g transform="translate(146.164,129.516)">
   <g id="copper0" >
    <circle id="connector0pin" fill="none" cx="3.01733" cy="3.01733" stroke="black" r="0.992124" stroke-width="0.850392" />
   </g>
  </g>
 </g>
 <g partID="854266410">
  <g transform="translate(225.364,35.916)">
   <g id="copper0" >
    <circle id="connector0pin" fill="none" cx="3.01733" cy="3.01733" stroke="black" r="0.992124" stroke-width="0.850392" />
   </g>
  </g>
 </g>
 <g partID="854266620">
  <g transform="translate(203.764,165.516)">
   <g id="copper0" >
    <circle id="connector0pin" fill="none" cx="3.01733" cy="3.01733" stroke="black" r="0.992124" stroke-width="0.850392" />
   </g>
  </g>
 </g>
 <g partID="854269020">
  <g transform="translate(45.3642,28.716)">
   <g id="copper0" >
    <circle id="connector0pin" fill="none" cx="3.01733" cy="3.01733" stroke="black" r="0.992124" stroke-width="0.850392" />
   </g>
  </g>
 </g>
 <g partID="854269050">
  <g transform="translate(9.36416,43.116)">
   <g id="copper0" >
    <circle id="connector0pin" fill="none" cx="3.01733" cy="3.01733" stroke="black" r="0.992124" stroke-width="0.850392" />
   </g>
  </g>
 </g>
 <g partID="854269370">
  <g transform="translate(30.9642,201.516)">
   <g id="copper0" >
    <circle id="connector0pin" fill="none" cx="3.01733" cy="3.01733" stroke="black" r="0.992124" stroke-width="0.850392" />
   </g>
  </g>
 </g>
 <g partID="854269400">
  <g transform="translate(45.3642,187.116)">
   <g id="copper0" >
    <circle id="connector0pin" fill="none" cx="3.01733" cy="3.01733" stroke="black" r="0.992124" stroke-width="0.850392" />
   </g>
  </g>
 </g>
 <g partID="854269940">
  <g transform="translate(23.7642,251.916)">
   <g id="copper0" >
    <circle id="connector0pin" fill="none" cx="3.01733" cy="3.01733" stroke="black" r="0.992124" stroke-width="0.850392" />
   </g>
  </g>
 </g>
 <g partID="854270000">
  <g transform="translate(239.764,28.716)">
   <g id="copper0" >
    <circle id="connector0pin" fill="none" cx="3.01733" cy="3.01733" stroke="black" r="0.992124" stroke-width="0.850392" />
   </g>
  </g>
 </g>
 <g partID="854270030">
  <g transform="translate(246.964,21.516)">
   <g id="copper0" >
    <circle id="connector0pin" fill="none" cx="3.01733" cy="3.01733" stroke="black" r="0.992124" stroke-width="0.850392" />
   </g>
  </g>
 </g>
 <g partID="854270060">
  <g transform="translate(254.164,21.516)">
   <g id="copper0" >
    <circle id="connector0pin" fill="none" cx="3.01733" cy="3.01733" stroke="black" r="0.992124" stroke-width="0.850392" />
   </g>
  </g>
 </g>
 <g partID="854270150">
  <g transform="translate(268.564,187.116)">
   <g id="copper0" >
    <circle id="connector0pin" fill="none" cx="3.01733" cy="3.01733" stroke="black" r="0.992124" stroke-width="0.850392" />
   </g>
  </g>
 </g>
 <g partID="854270520">
  <g transform="translate(232.564,7.11601)">
   <g id="copper0" >
    <circle id="connector0pin" fill="none" cx="3.01733" cy="3.01733" stroke="black" r="0.992124" stroke-width="0.850392" />
   </g>
  </g>
 </g>
 <g partID="854270960">
  <g transform="translate(102.964,201.516)">
   <g id="copper0" >
    <circle id="connector0pin" fill="none" cx="3.01733" cy="3.01733" stroke="black" r="0.992124" stroke-width="0.850392" />
   </g>
  </g>
 </g>
 <g partID="854271020">
  <g transform="translate(102.964,187.116)">
   <g id="copper0" >
    <circle id="connector0pin" fill="none" cx="3.01733" cy="3.01733" stroke="black" r="0.992124" stroke-width="0.850392" />
   </g>
  </g>
 </g>
 <g partID="854271550">
  <g transform="translate(102.964,259.116)">
   <g id="copper0" >
    <circle id="connector0pin" fill="none" cx="3.01733" cy="3.01733" stroke="black" r="0.992124" stroke-width="0.850392" />
   </g>
  </g>
 </g>
 <g partID="854274230">
  <g transform="translate(167.764,266.316)">
   <g id="copper0" >
    <circle id="connector0pin" fill="none" cx="3.01733" cy="3.01733" stroke="black" r="0.992124" stroke-width="0.850392" />
   </g>
  </g>
 </g>
 <g partID="854274280">
  <g transform="translate(138.964,201.516)">
   <g id="copper0" >
    <circle id="connector0pin" fill="none" cx="3.01733" cy="3.01733" stroke="black" r="0.992124" stroke-width="0.850392" />
   </g>
  </g>
 </g>
 <g partID="854274470">
  <g transform="translate(131.764,187.116)">
   <g id="copper0" >
    <circle id="connector0pin" fill="none" cx="3.01733" cy="3.01733" stroke="black" r="0.992124" stroke-width="0.850392" />
   </g>
  </g>
 </g>
 <g partID="854277300">
  <g transform="translate(238.893,236.645)">
   <g id="copper0" >
    <circle id="connector1pad" fill="none" cx="3.888" cy="3.888" stroke="black" r="2.052" stroke-width="1.224"  connectorname="DTR"/>
    <circle id="connector3pad" fill="none" cx="11.088" cy="3.888" stroke="black" r="2.052" stroke-width="1.224"  connectorname="RXI"/>
    <circle id="connector4pad" fill="none" cx="18.288" cy="3.888" stroke="black" r="2.052" stroke-width="1.224"  connectorname="TXO"/>
    <circle id="connector5pad" fill="none" cx="25.488" cy="3.888" stroke="black" r="2.052" stroke-width="1.224"  connectorname="VCC"/>
    <circle id="connector0pad" fill="none" cx="32.688" cy="3.888" stroke="black" r="2.052" stroke-width="1.224"  connectorname="CTS"/>
    <circle id="connector2pad" fill="none" cx="39.888" cy="3.888" stroke="black" r="2.052" stroke-width="1.224"  connectorname="GND"/>
   </g>
  </g>
 </g>
 <g partID="854277330">
  <g transform="translate(238.893,222.245)">
   <g id="copper0" >
    <circle id="connector1pad" fill="none" cx="3.888" cy="3.888" stroke="black" r="2.052" stroke-width="1.224"  connectorname="DTR"/>
    <circle id="connector3pad" fill="none" cx="11.088" cy="3.888" stroke="black" r="2.052" stroke-width="1.224"  connectorname="RXI"/>
    <circle id="connector4pad" fill="none" cx="18.288" cy="3.888" stroke="black" r="2.052" stroke-width="1.224"  connectorname="TXO"/>
    <circle id="connector5pad" fill="none" cx="25.488" cy="3.888" stroke="black" r="2.052" stroke-width="1.224"  connectorname="VCC"/>
    <circle id="connector0pad" fill="none" cx="32.688" cy="3.888" stroke="black" r="2.052" stroke-width="1.224"  connectorname="CTS"/>
    <circle id="connector2pad" fill="none" cx="39.888" cy="3.888" stroke="black" r="2.052" stroke-width="1.224"  connectorname="GND"/>
   </g>
  </g>
 </g>
 <g partID="854277890">
  <g transform="translate(346.063,5.41521)">
   <g id="copper0" >
    <circle id="nonconn0" fill="black" cx="4.71811" cy="4.71811" stroke="black" r="3.11811" stroke-width="0" />
   </g>
  </g>
 </g>
 <g partID="854277920">
  <g transform="translate(7.66337,5.41521)">
   <g id="copper0" >
    <circle id="nonconn0" fill="black" cx="4.71811" cy="4.71811" stroke="black" r="3.11811" stroke-width="0" />
   </g>
  </g>
 </g>
 <g partID="854277950">
  <g transform="translate(7.66337,257.415)">
   <g id="copper0" >
    <circle id="nonconn0" fill="black" cx="4.71811" cy="4.71811" stroke="black" r="3.11811" stroke-width="0" />
   </g>
  </g>
 </g>
 <g partID="854277980">
  <g transform="translate(346.063,257.415)">
   <g id="copper0" >
    <circle id="nonconn0" fill="black" cx="4.71811" cy="4.71811" stroke="black" r="3.11811" stroke-width="0" />
   </g>
  </g>
 </g>
 <g partID="854261570">
  <line y1="82.1333" y2="60.5333" stroke="black" x1="84.3815" x2="91.5815" stroke-width="1.728" stroke-linecap="round"/>
 </g>
 <g partID="854261460">
  <line y1="60.5333" y2="53.3333" stroke="black" x1="91.5815" x2="120.381" stroke-width="1.728" stroke-linecap="round"/>
 </g>
 <g partID="854250540">
  <line y1="53.3333" y2="53.3333" stroke="black" x1="120.381" x2="141.981" stroke-width="1.728" stroke-linecap="round"/>
 </g>
 <g partID="854250450">
  <line y1="53.3333" y2="39.3089" stroke="black" x1="141.981" x2="191.067" stroke-width="1.728" stroke-linecap="round"/>
 </g>
 <g partID="854250480">
  <line y1="103.733" y2="82.1333" stroke="black" x1="84.3815" x2="84.3815" stroke-width="1.728" stroke-linecap="round"/>
 </g>
 <g partID="854250420">
  <line y1="110.501" y2="103.733" stroke="black" x1="104.685" x2="84.3815" stroke-width="1.728" stroke-linecap="round"/>
 </g>
 <g partID="854261350">
  <line y1="60.5333" y2="74.9333" stroke="black" x1="156.381" x2="149.181" stroke-width="1.728" stroke-linecap="round"/>
 </g>
 <g partID="854252510">
  <line y1="74.9333" y2="103.733" stroke="black" x1="149.181" x2="149.181" stroke-width="1.728" stroke-linecap="round"/>
 </g>
 <g partID="854252390">
  <line y1="39.5446" y2="60.5333" stroke="black" x1="198.359" x2="156.381" stroke-width="1.728" stroke-linecap="round"/>
 </g>
 <g partID="854252420">
  <line y1="103.733" y2="110.322" stroke="black" x1="149.181" x2="162.359" stroke-width="1.728" stroke-linecap="round"/>
 </g>
 <g partID="854256060">
  <line y1="67.7333" y2="40.2594" stroke="black" x1="199.581" x2="206.45" stroke-width="1.728" stroke-linecap="round"/>
 </g>
 <g partID="854255430">
  <line y1="89.3333" y2="67.7333" stroke="black" x1="192.381" x2="199.581" stroke-width="1.728" stroke-linecap="round"/>
 </g>
 <g partID="854255320">
  <line y1="96.5333" y2="89.3333" stroke="black" x1="192.381" x2="192.381" stroke-width="1.728" stroke-linecap="round"/>
 </g>
 <g partID="854255180">
  <line y1="110.426" y2="96.5333" stroke="black" x1="227.112" x2="192.381" stroke-width="1.728" stroke-linecap="round"/>
 </g>
 <g partID="854258320">
  <line y1="97.1446" y2="103.733" stroke="black" x1="284.759" x2="271.581" stroke-width="1.728" stroke-linecap="round"/>
 </g>
 <g partID="854258350">
  <line y1="89.3333" y2="40.2865" stroke="black" x1="221.181" x2="214.175" stroke-width="1.728" stroke-linecap="round"/>
 </g>
 <g partID="854258380">
  <line y1="103.733" y2="89.3333" stroke="black" x1="271.581" x2="221.181" stroke-width="1.728" stroke-linecap="round"/>
 </g>
 <g partID="854259510">
  <line y1="54.7003" y2="110.933" stroke="black" x1="77.1815" x2="77.1815" stroke-width="1.728" stroke-linecap="round"/>
 </g>
 <g partID="854259540">
  <line y1="110.933" y2="125.333" stroke="black" x1="77.1815" x2="98.7815" stroke-width="1.728" stroke-linecap="round"/>
 </g>
 <g partID="854259570">
  <line y1="125.333" y2="132.265" stroke="black" x1="98.7815" x2="133.441" stroke-width="1.728" stroke-linecap="round"/>
 </g>
 <g partID="854261240">
  <line y1="175.733" y2="161.333" stroke="black" x1="105.981" x2="105.981" stroke-width="1.728" stroke-linecap="round"/>
 </g>
 <g partID="854261130">
  <line y1="154.133" y2="154.133" stroke="black" x1="113.181" x2="141.981" stroke-width="1.728" stroke-linecap="round"/>
 </g>
 <g partID="854279480">
  <line y1="154.133" y2="132.533" stroke="black" x1="141.981" x2="170.781" stroke-width="1.728" stroke-linecap="round"/>
 </g>
 <g partID="854280100">
  <line y1="96.5333" y2="82.1333" stroke="black" x1="293.181" x2="285.981" stroke-width="1.728" stroke-linecap="round"/>
 </g>
 <g partID="854261020">
  <line y1="132.533" y2="132.533" stroke="black" x1="170.781" x2="213.981" stroke-width="1.728" stroke-linecap="round"/>
 </g>
 <g partID="854286090">
  <line y1="182.933" y2="175.733" stroke="black" x1="113.181" x2="105.981" stroke-width="1.728" stroke-linecap="round"/>
 </g>
 <g partID="854280170">
  <line y1="82.1333" y2="67.7333" stroke="black" x1="285.981" x2="249.981" stroke-width="1.728" stroke-linecap="round"/>
 </g>
 <g partID="854286020">
  <line y1="161.333" y2="154.133" stroke="black" x1="105.981" x2="113.181" stroke-width="1.728" stroke-linecap="round"/>
 </g>
 <g partID="854280030">
  <line y1="110.933" y2="103.733" stroke="black" x1="300.381" x2="300.381" stroke-width="1.728" stroke-linecap="round"/>
 </g>
 <g partID="854260360">
  <line y1="60.5333" y2="53.3333" stroke="black" x1="235.581" x2="221.181" stroke-width="1.728" stroke-linecap="round"/>
 </g>
 <g partID="854260250">
  <line y1="103.733" y2="96.5333" stroke="black" x1="300.381" x2="293.181" stroke-width="1.728" stroke-linecap="round"/>
 </g>
 <g partID="854260030">
  <line y1="182.933" y2="182.933" stroke="black" x1="119.015" x2="113.181" stroke-width="1.728" stroke-linecap="round"/>
 </g>
 <g partID="854260140">
  <line y1="53.3333" y2="40.3003" stroke="black" x1="221.181" x2="221.181" stroke-width="1.728" stroke-linecap="round"/>
 </g>
 <g partID="854260910">
  <line y1="132.533" y2="139.733" stroke="black" x1="213.981" x2="228.381" stroke-width="1.728" stroke-linecap="round"/>
 </g>
 <g partID="854260690">
  <line y1="67.7333" y2="60.5333" stroke="black" x1="249.981" x2="235.581" stroke-width="1.728" stroke-linecap="round"/>
 </g>
 <g partID="854260800">
  <line y1="139.733" y2="132.533" stroke="black" x1="228.381" x2="285.981" stroke-width="1.728" stroke-linecap="round"/>
 </g>
 <g partID="854260470">
  <line y1="132.533" y2="110.933" stroke="black" x1="285.981" x2="300.381" stroke-width="1.728" stroke-linecap="round"/>
 </g>
 <g partID="854263710">
  <line y1="154.133" y2="154.133" stroke="black" x1="172.148" x2="198.215" stroke-width="1.728" stroke-linecap="round"/>
 </g>
 <g partID="854263770">
  <line y1="132.533" y2="132.533" stroke="black" x1="136.148" x2="147.815" stroke-width="1.728" stroke-linecap="round"/>
 </g>
 <g partID="854267030">
  <line y1="74.9333" y2="67.7333" stroke="black" x1="329.181" x2="321.981" stroke-width="1.728" stroke-linecap="round"/>
 </g>
 <g partID="854267120">
  <line y1="103.733" y2="96.5333" stroke="black" x1="329.181" x2="336.381" stroke-width="1.728" stroke-linecap="round"/>
 </g>
 <g partID="854267210">
  <line y1="118.133" y2="103.733" stroke="black" x1="307.581" x2="329.181" stroke-width="1.728" stroke-linecap="round"/>
 </g>
 <g partID="854271740">
  <line y1="53.3333" y2="53.3333" stroke="black" x1="300.381" x2="293.181" stroke-width="1.728" stroke-linecap="round"/>
 </g>
 <g partID="854266890">
  <line y1="161.333" y2="146.933" stroke="black" x1="213.981" x2="221.181" stroke-width="1.728" stroke-linecap="round"/>
 </g>
 <g partID="854271830">
  <line y1="46.1333" y2="46.1333" stroke="black" x1="264.381" x2="235.581" stroke-width="1.728" stroke-linecap="round"/>
 </g>
 <g partID="854271650">
  <line y1="46.1333" y2="39.8999" stroke="black" x1="235.581" x2="229.348" stroke-width="1.728" stroke-linecap="round"/>
 </g>
 <g partID="854266710">
  <line y1="67.7333" y2="53.3333" stroke="black" x1="321.981" x2="300.381" stroke-width="1.728" stroke-linecap="round"/>
 </g>
 <g partID="854266650">
  <line y1="167.567" y2="161.333" stroke="black" x1="207.748" x2="213.981" stroke-width="1.728" stroke-linecap="round"/>
 </g>
 <g partID="854266680">
  <line y1="53.3333" y2="46.1333" stroke="black" x1="293.181" x2="264.381" stroke-width="1.728" stroke-linecap="round"/>
 </g>
 <g partID="854266740">
  <line y1="96.5333" y2="74.9333" stroke="black" x1="336.381" x2="329.181" stroke-width="1.728" stroke-linecap="round"/>
 </g>
 <g partID="854266860">
  <line y1="146.933" y2="146.933" stroke="black" x1="221.181" x2="242.781" stroke-width="1.728" stroke-linecap="round"/>
 </g>
 <g partID="854266770">
  <line y1="125.333" y2="118.133" stroke="black" x1="300.381" x2="307.581" stroke-width="1.728" stroke-linecap="round"/>
 </g>
 <g partID="854266800">
  <line y1="139.733" y2="125.333" stroke="black" x1="293.181" x2="300.381" stroke-width="1.728" stroke-linecap="round"/>
 </g>
 <g partID="854266830">
  <line y1="146.933" y2="139.733" stroke="black" x1="242.781" x2="293.181" stroke-width="1.728" stroke-linecap="round"/>
 </g>
 <g partID="854284180">
  <line y1="31.7333" y2="31.7333" stroke="black" x1="26.7815" x2="47.0146" stroke-width="1.728" stroke-linecap="round"/>
 </g>
 <g partID="854269080">
  <line y1="45.1668" y2="31.7333" stroke="black" x1="13.3481" x2="26.7815" stroke-width="1.728" stroke-linecap="round"/>
 </g>
 <g partID="854269460">
  <line y1="191.1" y2="203.567" stroke="black" x1="47.4149" x2="34.9481" stroke-width="1.728" stroke-linecap="round"/>
 </g>
 <g partID="854270760">
  <line y1="247.733" y2="67.7333" stroke="black" x1="5.18149" x2="5.18149" stroke-width="1.728" stroke-linecap="round"/>
 </g>
 <g partID="854280240">
  <line y1="31.7333" y2="24.5333" stroke="black" x1="5.18149" x2="12.3815" stroke-width="1.728" stroke-linecap="round"/>
 </g>
 <g partID="854270730">
  <line y1="67.7333" y2="31.7333" stroke="black" x1="5.18149" x2="5.18149" stroke-width="1.728" stroke-linecap="round"/>
 </g>
 <g partID="854270600">
  <line y1="254.501" y2="247.733" stroke="black" x1="25.4847" x2="5.18149" stroke-width="1.728" stroke-linecap="round"/>
 </g>
 <g partID="854270670">
  <line y1="10.1333" y2="10.1333" stroke="black" x1="41.1815" x2="234.215" stroke-width="1.728" stroke-linecap="round"/>
 </g>
 <g partID="854280350">
  <line y1="17.3333" y2="10.1333" stroke="black" x1="19.5815" x2="41.1815" stroke-width="1.728" stroke-linecap="round"/>
 </g>
 <g partID="854270700">
  <line y1="24.5333" y2="17.3333" stroke="black" x1="12.3815" x2="19.5815" stroke-width="1.728" stroke-linecap="round"/>
 </g>
 <g partID="854271050">
  <line y1="191.5" y2="203.166" stroke="black" x1="105.981" x2="105.981" stroke-width="1.728" stroke-linecap="round"/>
 </g>
 <g partID="854272710">
  <line y1="96.5333" y2="132.533" stroke="black" x1="350.781" x2="314.781" stroke-width="1.728" stroke-linecap="round"/>
 </g>
 <g partID="854272780">
  <line y1="67.7333" y2="96.5333" stroke="black" x1="336.381" x2="350.781" stroke-width="1.728" stroke-linecap="round"/>
 </g>
 <g partID="854272640">
  <line y1="146.933" y2="168.533" stroke="black" x1="314.781" x2="321.981" stroke-width="1.728" stroke-linecap="round"/>
 </g>
 <g partID="854273730">
  <line y1="31.7333" y2="31.7333" stroke="black" x1="249.981" x2="264.381" stroke-width="1.728" stroke-linecap="round"/>
 </g>
 <g partID="854273800">
  <line y1="38.9333" y2="38.9333" stroke="black" x1="278.781" x2="300.381" stroke-width="1.728" stroke-linecap="round"/>
 </g>
 <g partID="854276650">
  <line y1="132.533" y2="146.933" stroke="black" x1="314.781" x2="314.781" stroke-width="1.728" stroke-linecap="round"/>
 </g>
 <g partID="854273870">
  <line y1="38.9333" y2="67.7333" stroke="black" x1="300.381" x2="336.381" stroke-width="1.728" stroke-linecap="round"/>
 </g>
 <g partID="854273940">
  <line y1="31.7333" y2="38.9333" stroke="black" x1="264.381" x2="278.781" stroke-width="1.728" stroke-linecap="round"/>
 </g>
 <g partID="854272850">
  <line y1="25.9003" y2="31.7333" stroke="black" x1="249.981" x2="249.981" stroke-width="1.728" stroke-linecap="round"/>
 </g>
 <g partID="854272220">
  <line y1="211.733" y2="211.733" stroke="black" x1="156.381" x2="98.7815" stroke-width="1.728" stroke-linecap="round"/>
 </g>
 <g partID="854272150">
  <line y1="211.733" y2="218.933" stroke="black" x1="98.7815" x2="91.5815" stroke-width="1.728" stroke-linecap="round"/>
 </g>
 <g partID="854272570">
  <line y1="168.533" y2="190.133" stroke="black" x1="321.981" x2="321.981" stroke-width="1.728" stroke-linecap="round"/>
 </g>
 <g partID="854272080">
  <line y1="218.933" y2="254.933" stroke="black" x1="91.5815" x2="91.5815" stroke-width="1.728" stroke-linecap="round"/>
 </g>
 <g partID="854272010">
  <line y1="254.933" y2="261.522" stroke="black" x1="91.5815" x2="104.759" stroke-width="1.728" stroke-linecap="round"/>
 </g>
 <g partID="854272430">
  <line y1="190.133" y2="204.533" stroke="black" x1="321.981" x2="307.581" stroke-width="1.728" stroke-linecap="round"/>
 </g>
 <g partID="854272500">
  <line y1="204.533" y2="204.533" stroke="black" x1="307.581" x2="278.781" stroke-width="1.728" stroke-linecap="round"/>
 </g>
 <g partID="854272360">
  <line y1="204.533" y2="204.533" stroke="black" x1="278.781" x2="163.581" stroke-width="1.728" stroke-linecap="round"/>
 </g>
 <g partID="854272290">
  <line y1="204.533" y2="211.733" stroke="black" x1="163.581" x2="156.381" stroke-width="1.728" stroke-linecap="round"/>
 </g>
 <g partID="854274500">
  <line y1="191.356" y2="203.311" stroke="black" x1="135.393" x2="141.37" stroke-width="1.728" stroke-linecap="round"/>
 </g>
 <g partID="854276210">
  <line y1="96.5333" y2="82.1333" stroke="black" x1="343.581" x2="336.381" stroke-width="1.728" stroke-linecap="round"/>
 </g>
 <g partID="854276320">
  <line y1="125.333" y2="96.5333" stroke="black" x1="314.781" x2="343.581" stroke-width="1.728" stroke-linecap="round"/>
 </g>
 <g partID="854280500">
  <line y1="190.133" y2="182.933" stroke="black" x1="293.181" x2="307.581" stroke-width="1.728" stroke-linecap="round"/>
 </g>
 <g partID="854276540">
  <line y1="182.933" y2="132.533" stroke="black" x1="307.581" x2="307.581" stroke-width="1.728" stroke-linecap="round"/>
 </g>
 <g partID="854276100">
  <line y1="82.1333" y2="67.7333" stroke="black" x1="336.381" x2="329.181" stroke-width="1.728" stroke-linecap="round"/>
 </g>
 <g partID="854276430">
  <line y1="132.533" y2="125.333" stroke="black" x1="307.581" x2="314.781" stroke-width="1.728" stroke-linecap="round"/>
 </g>
 <g partID="854275880">
  <line y1="46.1333" y2="46.1333" stroke="black" x1="300.381" x2="278.781" stroke-width="1.728" stroke-linecap="round"/>
 </g>
 <g partID="854275530">
  <line y1="38.9333" y2="32.6999" stroke="black" x1="249.981" x2="243.748" stroke-width="1.728" stroke-linecap="round"/>
 </g>
 <g partID="854275640">
  <line y1="38.9333" y2="38.9333" stroke="black" x1="264.381" x2="249.981" stroke-width="1.728" stroke-linecap="round"/>
 </g>
 <g partID="854275420">
  <line y1="190.133" y2="190.133" stroke="black" x1="272.948" x2="293.181" stroke-width="1.728" stroke-linecap="round"/>
 </g>
 <g partID="854275770">
  <line y1="46.1333" y2="38.9333" stroke="black" x1="278.781" x2="264.381" stroke-width="1.728" stroke-linecap="round"/>
 </g>
 <g partID="854275990">
  <line y1="67.7333" y2="46.1333" stroke="black" x1="329.181" x2="300.381" stroke-width="1.728" stroke-linecap="round"/>
 </g>
 <g partID="854277020">
  <line y1="103.733" y2="96.5333" stroke="black" x1="350.781" x2="357.981" stroke-width="1.728" stroke-linecap="round"/>
 </g>
 <g partID="854276990">
  <line y1="132.533" y2="103.733" stroke="black" x1="321.981" x2="350.781" stroke-width="1.728" stroke-linecap="round"/>
 </g>
 <g partID="854276960">
  <line y1="146.933" y2="132.533" stroke="black" x1="321.981" x2="321.981" stroke-width="1.728" stroke-linecap="round"/>
 </g>
 <g partID="854277080">
  <line y1="60.5333" y2="31.7333" stroke="black" x1="336.381" x2="300.381" stroke-width="1.728" stroke-linecap="round"/>
 </g>
 <g partID="854276930">
  <line y1="168.533" y2="146.933" stroke="black" x1="329.181" x2="321.981" stroke-width="1.728" stroke-linecap="round"/>
 </g>
 <g partID="854277110">
  <line y1="31.7333" y2="31.7333" stroke="black" x1="300.381" x2="278.781" stroke-width="1.728" stroke-linecap="round"/>
 </g>
 <g partID="854277050">
  <line y1="96.5333" y2="60.5333" stroke="black" x1="357.981" x2="336.381" stroke-width="1.728" stroke-linecap="round"/>
 </g>
 <g partID="854276870">
  <line y1="218.933" y2="211.733" stroke="black" x1="221.181" x2="228.381" stroke-width="1.728" stroke-linecap="round"/>
 </g>
 <g partID="854276720">
  <line y1="269.333" y2="269.333" stroke="black" x1="172.148" x2="213.981" stroke-width="1.728" stroke-linecap="round"/>
 </g>
 <g partID="854276750">
  <line y1="269.333" y2="262.133" stroke="black" x1="213.981" x2="221.181" stroke-width="1.728" stroke-linecap="round"/>
 </g>
 <g partID="854276900">
  <line y1="197.333" y2="168.533" stroke="black" x1="329.181" x2="329.181" stroke-width="1.728" stroke-linecap="round"/>
 </g>
 <g partID="854276780">
  <line y1="262.133" y2="218.933" stroke="black" x1="221.181" x2="221.181" stroke-width="1.728" stroke-linecap="round"/>
 </g>
 <g partID="854276840">
  <line y1="211.733" y2="197.333" stroke="black" x1="314.781" x2="329.181" stroke-width="1.728" stroke-linecap="round"/>
 </g>
 <g partID="854284510">
  <line y1="31.7333" y2="24.9656" stroke="black" x1="278.781" x2="258.478" stroke-width="1.728" stroke-linecap="round"/>
 </g>
 <g partID="854276810">
  <line y1="211.733" y2="211.733" stroke="black" x1="228.381" x2="314.781" stroke-width="1.728" stroke-linecap="round"/>
 </g>
</svg>
