; NON-PLATED HOLES START AT T1
; THROUGH (PLATED) HOLES START AT T100
M48
INCH
T1C0.086614
T100C0.038000
T101C0.052000
T102C0.040000
T103C0.015748
T104C0.035000
T105C0.031497
%
T1
X001719Y036781
X048719Y001781
X001719Y001781
X048719Y036781
T100
X006719Y031781
X006719Y032781
T101
X006719Y003781
X018719Y013781
X028719Y022781
X021719Y013781
X016719Y002781
X025719Y022781
X027719Y012781
X030719Y012781
X036719Y022781
X033719Y022781
X028719Y001781
X041280Y014842
X025719Y001781
X039159Y012720
X041719Y025781
X019719Y022781
X009719Y003781
X016719Y022781
X043841Y023660
X019719Y002781
T102
X037719Y006781
X038719Y006781
X033719Y004781
X034719Y004781
X035719Y004781
X033719Y006781
X036719Y004781
X034719Y006781
X037719Y004781
X035719Y006781
X038719Y004781
X036719Y006781
T103
X016719Y012781
X027719Y032781
X032719Y036781
X030719Y032781
X014719Y001781
X033719Y033781
X031719Y022781
X035719Y034781
X001719Y031781
X034719Y034781
X014719Y009781
X037719Y011781
X029719Y032781
X004719Y009781
X023719Y016781
X028719Y014781
X019719Y009781
X003719Y002781
X014719Y022781
X026719Y032781
X039719Y024781
X006719Y011781
X023719Y000781
X006719Y033781
X010719Y030781
X018719Y011781
X027719Y016781
X022719Y022781
X018719Y019781
X014719Y011781
X028719Y032781
X031719Y032781
X020719Y019781
T104
X036719Y016781
X045548Y025953
X029719Y035701
X027719Y035701
X011719Y007781
X012719Y015781
X014719Y028781
X036719Y030781
X029548Y003953
X014719Y007781
X028548Y024953
X034719Y035781
X032719Y035781
X030719Y035781
X017719Y007781
X035719Y035701
X033719Y035701
X031719Y035701
X004719Y008781
X023719Y002781
X040719Y016781
X016719Y018781
X019719Y018781
X022305Y028195
X014719Y024781
X020548Y004953
X014719Y003781
X025719Y018781
X031719Y028781
X028719Y018781
X039548Y027953
X004719Y004781
X022548Y015953
X016719Y014781
X016719Y027781
X025133Y025367
X036719Y013781
X032719Y013781
X036719Y026781
X032719Y026781
X008719Y015781
X019548Y024953
X025719Y014781
X042719Y028781
X025719Y027781
X028719Y035781
X026719Y035781
X024719Y035781
X007719Y007781
X023719Y006781
X031719Y024781
X025719Y035701
X026719Y006781
X031548Y015953
X008719Y013781
X004719Y013781
T105
X008719Y017781
X008719Y018765
X004719Y017781
X004719Y018765
T00
M30
