G04 MADE WITH FRITZING*
G04 WWW.FRITZING.ORG*
G04 DOUBLE SIDED*
G04 HOLES PLATED*
G04 CONTOUR ON CENTER OF CONTOUR VECTOR*
%ASAXBY*%
%FSLAX23Y23*%
%MOIN*%
%OFA0B0*%
%SFA1.0B1.0*%
%ADD10C,0.062992*%
%ADD11C,0.074000*%
%ADD12C,0.078000*%
%ADD13C,0.075000*%
%ADD14C,0.092000*%
%ADD15C,0.039370*%
%ADD16R,0.062992X0.062992*%
%ADD17R,0.092000X0.092000*%
%ADD18C,0.024000*%
%ADD19C,0.020000*%
%LNCOPPER0*%
G90*
G70*
G54D10*
X872Y1877D03*
X872Y1778D03*
X472Y1877D03*
X472Y1778D03*
G54D11*
X2472Y3578D03*
X2572Y3570D03*
X2672Y3578D03*
X2772Y3570D03*
X2872Y3578D03*
X2972Y3570D03*
X3072Y3578D03*
X3172Y3570D03*
X3272Y3578D03*
X3372Y3570D03*
X3472Y3578D03*
X3572Y3570D03*
G54D12*
X672Y3278D03*
X672Y3178D03*
G54D13*
X872Y1578D03*
X1272Y1578D03*
X472Y1378D03*
X872Y1378D03*
X3672Y1678D03*
X4072Y1678D03*
X3272Y1378D03*
X3672Y1378D03*
X2872Y1878D03*
X3155Y1595D03*
X472Y878D03*
X472Y478D03*
X2372Y678D03*
X2372Y278D03*
X772Y778D03*
X1172Y778D03*
X2672Y678D03*
X2955Y395D03*
X1472Y778D03*
X1472Y378D03*
X2572Y1878D03*
X2572Y1478D03*
X1772Y778D03*
X2055Y495D03*
X2572Y2778D03*
X2855Y2495D03*
X2231Y2820D03*
X2513Y2537D03*
X1472Y2878D03*
X1472Y2478D03*
X1672Y2778D03*
X1955Y2495D03*
X1972Y1878D03*
X2255Y1595D03*
X1672Y1878D03*
X1672Y1478D03*
X4272Y2878D03*
X4555Y2595D03*
X3172Y2878D03*
X3172Y2478D03*
X3672Y3078D03*
X3955Y2795D03*
X3272Y2678D03*
X3672Y2678D03*
G54D14*
X3916Y1272D03*
X4128Y1484D03*
X672Y378D03*
X972Y378D03*
X1672Y278D03*
X1972Y278D03*
X2772Y1278D03*
X3072Y1278D03*
X2572Y178D03*
X2872Y178D03*
X1672Y2278D03*
X1972Y2278D03*
X2572Y2278D03*
X2872Y2278D03*
X1872Y1378D03*
X2172Y1378D03*
X3372Y2278D03*
X3672Y2278D03*
X4172Y2578D03*
X4384Y2366D03*
G54D15*
X2672Y3278D03*
X1472Y2278D03*
X2772Y3278D03*
X2272Y2278D03*
X2872Y3278D03*
X3172Y2278D03*
X2972Y3278D03*
X3972Y2478D03*
X1872Y1978D03*
X1072Y3078D03*
X3072Y3278D03*
X1672Y1278D03*
X2772Y1678D03*
X2372Y1678D03*
X2072Y1978D03*
X3172Y3278D03*
X2872Y1478D03*
X672Y3378D03*
X172Y3178D03*
X472Y978D03*
X672Y1178D03*
X372Y278D03*
X3372Y3378D03*
X3472Y3478D03*
X3572Y3478D03*
X3772Y1178D03*
X3272Y3678D03*
X1472Y978D03*
X1472Y1178D03*
X1472Y178D03*
X2372Y78D03*
X1972Y978D03*
X1872Y1178D03*
G54D11*
X3372Y478D03*
X3472Y478D03*
X3572Y478D03*
X3672Y478D03*
X3772Y478D03*
X3872Y478D03*
X3372Y678D03*
X3472Y678D03*
X3572Y678D03*
X3672Y678D03*
X3772Y678D03*
X3872Y678D03*
G54D16*
X872Y1877D03*
X472Y1877D03*
G54D17*
X672Y378D03*
X1672Y278D03*
X2772Y1278D03*
X2572Y178D03*
X1672Y2278D03*
X2572Y2278D03*
X1872Y1378D03*
X3372Y2278D03*
G54D18*
X1172Y2678D02*
X1272Y2978D01*
D02*
X1272Y2978D02*
X1672Y3078D01*
D02*
X1672Y3078D02*
X1972Y3078D01*
D02*
X1972Y3078D02*
X2654Y3273D01*
D02*
X1172Y2378D02*
X1172Y2678D01*
D02*
X1454Y2284D02*
X1172Y2378D01*
D02*
X2172Y2978D02*
X2072Y2778D01*
D02*
X2072Y2778D02*
X2072Y2378D01*
D02*
X2755Y3270D02*
X2172Y2978D01*
D02*
X2072Y2378D02*
X2255Y2287D01*
D02*
X2772Y2878D02*
X2867Y3260D01*
D02*
X2672Y2578D02*
X2772Y2878D01*
D02*
X2672Y2478D02*
X2672Y2578D01*
D02*
X3154Y2285D02*
X2672Y2478D01*
D02*
X3955Y2470D02*
X3772Y2378D01*
D02*
X3072Y2578D02*
X2975Y3259D01*
D02*
X3772Y2378D02*
X3072Y2578D01*
D02*
X1072Y3059D02*
X1072Y2278D01*
D02*
X1072Y2278D02*
X1372Y2078D01*
D02*
X1372Y2078D02*
X1853Y1982D01*
D02*
X1472Y1378D02*
X1472Y1578D01*
D02*
X1572Y1678D02*
X1972Y1678D01*
D02*
X1972Y1678D02*
X2372Y1978D01*
D02*
X4072Y2478D02*
X3972Y2678D01*
D02*
X2372Y1978D02*
X2972Y1978D01*
D02*
X1572Y1278D02*
X1472Y1378D01*
D02*
X3972Y2678D02*
X3472Y2878D01*
D02*
X1472Y1578D02*
X1572Y1678D01*
D02*
X4172Y2278D02*
X4172Y2378D01*
D02*
X3272Y2978D02*
X3072Y3078D01*
D02*
X4172Y2378D02*
X4072Y2478D01*
D02*
X1653Y1278D02*
X1572Y1278D01*
D02*
X3072Y3078D02*
X3072Y3259D01*
D02*
X2972Y1978D02*
X3172Y1878D01*
D02*
X3472Y2878D02*
X3272Y2978D01*
D02*
X3172Y1878D02*
X3972Y1978D01*
D02*
X3972Y1978D02*
X4172Y2278D01*
D02*
X2391Y1678D02*
X2753Y1678D01*
D02*
X1891Y1978D02*
X2053Y1978D01*
D02*
X4572Y2778D02*
X4472Y2878D01*
D02*
X4572Y2378D02*
X4672Y2478D01*
D02*
X4272Y2178D02*
X4572Y2378D01*
D02*
X4172Y3078D02*
X4072Y3078D01*
D02*
X2972Y1578D02*
X3072Y1778D01*
D02*
X3672Y3178D02*
X3272Y3178D01*
D02*
X3272Y3178D02*
X3185Y3265D01*
D02*
X4472Y2878D02*
X4172Y3078D01*
D02*
X2885Y1492D02*
X2972Y1578D01*
D02*
X4072Y3078D02*
X3672Y3178D01*
D02*
X4672Y2478D02*
X4572Y2778D01*
D02*
X3072Y1778D02*
X3372Y1778D01*
D02*
X4172Y2078D02*
X4272Y2178D01*
D02*
X4072Y1878D02*
X4172Y2078D01*
D02*
X3372Y1778D02*
X4072Y1878D01*
D02*
X372Y3378D02*
X653Y3378D01*
D02*
X185Y3192D02*
X372Y3378D01*
D02*
X659Y1165D02*
X485Y992D01*
D02*
X72Y378D02*
X72Y2878D01*
D02*
X72Y3378D02*
X172Y3478D01*
D02*
X72Y2878D02*
X72Y3378D01*
D02*
X354Y284D02*
X72Y378D01*
D02*
X572Y3678D02*
X3253Y3678D01*
D02*
X272Y3578D02*
X572Y3678D01*
D02*
X172Y3478D02*
X272Y3578D01*
D02*
X1472Y1159D02*
X1472Y997D01*
D02*
X4872Y2478D02*
X4372Y1978D01*
D02*
X4672Y2878D02*
X4872Y2478D01*
D02*
X4372Y1778D02*
X4472Y1478D01*
D02*
X3472Y3378D02*
X3672Y3378D01*
D02*
X3872Y3278D02*
X4172Y3278D01*
D02*
X4372Y1978D02*
X4372Y1778D01*
D02*
X4172Y3278D02*
X4672Y2878D01*
D02*
X3672Y3378D02*
X3872Y3278D01*
D02*
X3472Y3459D02*
X3472Y3378D01*
D02*
X2172Y878D02*
X1372Y878D01*
D02*
X1372Y878D02*
X1272Y778D01*
D02*
X4472Y1478D02*
X4472Y1178D01*
D02*
X1272Y778D02*
X1272Y278D01*
D02*
X1272Y278D02*
X1455Y187D01*
D02*
X4472Y1178D02*
X4272Y978D01*
D02*
X4272Y978D02*
X3872Y978D01*
D02*
X3872Y978D02*
X2272Y978D01*
D02*
X2272Y978D02*
X2172Y878D01*
D02*
X1880Y1161D02*
X1963Y995D01*
D02*
X4772Y2478D02*
X4672Y2678D01*
D02*
X4372Y2078D02*
X4772Y2478D01*
D02*
X4072Y1178D02*
X4272Y1278D01*
D02*
X4272Y1278D02*
X4272Y1978D01*
D02*
X4672Y2678D02*
X4572Y2878D01*
D02*
X4272Y1978D02*
X4372Y2078D01*
D02*
X4172Y3178D02*
X3872Y3178D01*
D02*
X3472Y3278D02*
X3385Y3365D01*
D02*
X3672Y3278D02*
X3472Y3278D01*
D02*
X3791Y1178D02*
X4072Y1178D01*
D02*
X3872Y3178D02*
X3672Y3278D01*
D02*
X4572Y2878D02*
X4172Y3178D01*
D02*
X4872Y2378D02*
X4972Y2478D01*
D02*
X4472Y1978D02*
X4872Y2378D01*
D02*
X4472Y1778D02*
X4472Y1978D01*
D02*
X4672Y2978D02*
X4172Y3378D01*
D02*
X4572Y1478D02*
X4472Y1778D01*
D02*
X4172Y3378D02*
X3872Y3378D01*
D02*
X4972Y2478D02*
X4672Y2978D01*
D02*
X3072Y778D02*
X3172Y878D01*
D02*
X2391Y78D02*
X2972Y78D01*
D02*
X2972Y78D02*
X3072Y178D01*
D02*
X4572Y1078D02*
X4572Y1478D01*
D02*
X3072Y178D02*
X3072Y778D01*
D02*
X4372Y878D02*
X4572Y1078D01*
D02*
X3872Y3378D02*
X3590Y3472D01*
D02*
X3172Y878D02*
X4372Y878D01*
G54D19*
X3916Y1323D02*
X3967Y1272D01*
X3916Y1221D01*
X3865Y1272D01*
X3916Y1323D01*
D02*
X4223Y2578D02*
X4172Y2527D01*
X4121Y2578D01*
X4172Y2629D01*
X4223Y2578D01*
D02*
G04 End of Copper0*
M02*